<?xml version="1.0" encoding="UTF-8"?>
<svg xmlns="http://www.w3.org/2000/svg" version="1.1" viewBox="0 0 416.8 105.3">
  <defs>
    <style>
      .cls-1 {
        fill: #090a12;
      }
    </style>
  </defs>
  <!-- Generator: Adobe Illustrator 28.7.2, SVG Export Plug-In . SVG Version: 1.2.0 Build 154)  -->
  <g>
    <g id="Layer_1">
      <g>
        <g>
          <path class="cls-1" d="M25.2,101.7c-8.3,0-14.3-1.7-19.9-5.5-.8-.6-1-1.5-.4-2.6l5.3-8.3c.6-.9,1.3-1.1,2.3-.5,3.2,1.9,7.4,3.4,12.1,3.4s9.5-2.5,9.4-10.1c-2.8.9-6.3,1.5-9.3,1.5-13,0-21.9-8-21.9-21.9v-8.4c0-16,10.5-23.1,24.1-23.1s15,1.7,20.9,4.1c.9.4,1.3,1.1,1.3,2.2v43.4c0,17.5-7,25.8-23.9,25.8ZM26.7,66.2c2.9,0,5.6-.6,7-1.7v-23.3c-1.5-.6-4.3-1-6.7-1-5.4,0-8.6,2.3-8.6,8.7v9c0,6.1,3.3,8.3,8.3,8.3Z"/>
          <path class="cls-1" d="M67,20.2c-4.9,0-8.5-3.8-8.5-8.6s3.6-8.6,8.5-8.6,8.4,3.6,8.4,8.6-3.4,8.6-8.4,8.6ZM61,80.9c-1.1,0-1.8-.6-1.8-1.8V29.4c0-1.1.7-1.7,1.8-1.7h11.9c1.1,0,1.7.6,1.7,1.7v49.7c0,1.2-.6,1.8-1.7,1.8h-11.9Z"/>
          <path class="cls-1" d="M106.8,19.8c-4.4,0-6.6,2.6-6.6,7.4v1.5h9.4c1.1,0,1.7.6,1.7,1.7v9.8c0,1.1-.6,1.7-1.7,1.7h-9.4v37c0,1.2-.6,1.8-1.7,1.8h-11.9c-1.2,0-1.8-.6-1.8-1.8V26.6c0-13.3,7.8-20.3,19.4-20.3s4.8.1,6.6.4c1,.2,1.5.9,1.5,2.1v9.5c0,1.1-.5,1.8-1.3,1.7-1.2-.1-2.7-.2-4.2-.2Z"/>
          <path class="cls-1" d="M140.3,68.2c.9,0,2.1-.1,3.2-.2,1.3-.2,1.9.3,1.9,1.5v10.1c0,1-.4,1.8-1.4,2.1-1.7.3-3.9.5-6.3.5-11.7,0-19.5-6.5-19.5-19.6V16.5c0-1.1.6-1.7,1.8-1.7h10.5c1.1,0,1.7.5,1.8,1.6l1.2,12.3h9c1.1,0,1.8.6,1.8,1.7v9.8c0,1.1-.7,1.7-1.8,1.7h-8.9v18.6c0,5,2.3,7.6,6.7,7.6Z"/>
        </g>
        <g>
          <path class="cls-1" d="M173.8,82.3c-11.9,0-18.6-7.4-18.6-19.9V9.5c0-1.2.6-1.8,1.8-1.8h11.9c1.1,0,1.7.6,1.7,1.8v51c0,5.1,2,7.5,5.9,7.5s2.1,0,3.1-.1c1.2-.1,1.9.5,1.9,1.7v10.3c0,.9-.4,1.7-1.1,1.8-1.7.3-3.9.6-6.6.6Z"/>
          <path class="cls-1" d="M232.3,57.9c0,1.1-.6,1.7-1.8,1.7h-28.4v1.6c0,5.2,3.3,7.9,8.6,7.9s9.1-1.5,12.8-3.7c.9-.7,1.7-.5,2.3.4l5.2,7.1c.6.9.6,1.8-.3,2.6-5.1,4-11.7,6.8-20.5,6.8-13.1,0-23.6-7.1-23.6-21.3v-12.9c0-15.3,10.6-21.8,23.3-21.8s22.4,6.4,22.4,21.8v9.8ZM209.8,39.2c-4.6,0-7.7,2.5-7.7,8.1v2.2h15.5v-2.2c0-5.5-3.2-8.1-7.7-8.1Z"/>
          <path class="cls-1" d="M262.9,68.2c.9,0,2.1-.1,3.2-.2,1.3-.2,1.9.3,1.9,1.5v10.1c0,1-.4,1.8-1.4,2-1.7.3-3.9.5-6.3.5-11.7,0-19.5-6.5-19.5-19.6V16.5c0-1.1.6-1.7,1.8-1.7h10.5c1.1,0,1.7.5,1.8,1.6l1.2,12.3h9c1.1,0,1.8.6,1.8,1.7v9.8c0,1.1-.7,1.7-1.8,1.7h-8.9v18.6c0,5,2.3,7.6,6.7,7.6Z"/>
          <path class="cls-1" d="M296.7,68.2c.9,0,2.1-.1,3.2-.2,1.3-.2,1.9.3,1.9,1.5v10.1c0,1-.4,1.8-1.4,2-1.7.3-3.9.5-6.3.5-11.7,0-19.5-6.5-19.5-19.6V16.5c0-1.1.6-1.7,1.8-1.7h10.5c1.1,0,1.7.5,1.8,1.6l1.2,12.3h9c1.1,0,1.8.6,1.8,1.7v9.8c0,1.1-.7,1.7-1.8,1.7h-8.9v18.6c0,5,2.3,7.6,6.7,7.6Z"/>
          <path class="cls-1" d="M353,57.9c0,1.1-.6,1.7-1.8,1.7h-28.4v1.6c0,5.2,3.3,7.9,8.6,7.9s9.2-1.5,12.8-3.7c.9-.7,1.7-.5,2.3.4l5.2,7.1c.6.9.6,1.8-.3,2.6-5.1,4-11.7,6.8-20.5,6.8-13.1,0-23.6-7.1-23.6-21.3v-12.9c0-15.3,10.6-21.8,23.3-21.8s22.4,6.4,22.4,21.8v9.8ZM330.5,39.2c-4.6,0-7.7,2.5-7.7,8.1v2.2h15.5v-2.2c0-5.5-3.2-8.1-7.7-8.1Z"/>
          <path class="cls-1" d="M363.3,81c-1.2,0-1.8-.6-1.8-1.8v-46.6c0-.9.4-1.6,1.3-2.2,5.5-2.8,12-4.2,18.5-4.2s6.1.4,9.8,1c1.1.2,1.6.8,1.6,1.9v9.4c0,1.2-.7,1.8-1.9,1.6-2-.3-4.2-.4-6.2-.4-3,0-5.7.5-7.6,1.3v38c0,1.2-.6,1.8-1.7,1.8h-11.9Z"/>
          <path class="cls-1" d="M412.8,62.4h-15.1c-1.1,0-1.7.6-1.7,1.8v14.8c0,1.2.6,1.8,1.7,1.8h15.1c1.1,0,1.7-.6,1.7-1.8v-14.8c0-1.2-.6-1.8-1.7-1.8Z"/>
        </g>
      </g>
    </g>
  </g>
</svg>