<?xml version="1.0" encoding="UTF-8"?>
<svg xmlns="http://www.w3.org/2000/svg" version="1.1" viewBox="0 0 171.7 43.5">
  <defs>
    <style>
      .cls-1 {
        fill: #090a12;
      }
    </style>
  </defs>
  <!-- Generator: Adobe Illustrator 28.7.2, SVG Export Plug-In . SVG Version: 1.2.0 Build 154)  -->
  <g>
    <g id="_레이어_1" data-name="레이어_1">
      <g id="Layer_1">
        <g>
          <g>
            <path class="cls-1" d="M12,43.5c-3.4,0-5.9-.7-8.2-2.3-.3-.2-.4-.6-.2-1.1l2.2-3.4c.2-.4.5-.5.9-.2,1.3.8,3,1.4,5,1.4s3.9-1,3.9-4.1c-1.1.4-2.6.6-3.8.6-5.3,0-9-3.3-9-9v-3.4c0-6.6,4.3-9.5,9.9-9.5s6.2.7,8.6,1.7c.4.2.5.5.5.9v17.8c0,7.2-2.9,10.6-9.8,10.6ZM12.6,28.9c1.2,0,2.3-.2,2.9-.7v-9.6c-.6-.2-1.8-.4-2.7-.4-2.2,0-3.5.9-3.5,3.6v3.7c0,2.5,1.4,3.4,3.4,3.4Z"/>
            <path class="cls-1" d="M29.1,10.1c-2,0-3.5-1.6-3.5-3.5s1.5-3.5,3.5-3.5,3.4,1.5,3.4,3.5-1.4,3.5-3.4,3.5ZM26.7,35c-.5,0-.7-.2-.7-.7V13.8c0-.5.3-.7.7-.7h4.9c.5,0,.7.2.7.7v20.4c0,.5-.2.7-.7.7h-4.9Z"/>
            <path class="cls-1" d="M45.5,9.9c-1.8,0-2.7,1.1-2.7,3v.6h3.9c.5,0,.7.2.7.7v4c0,.5-.2.7-.7.7h-3.9v15.2c0,.5-.2.7-.7.7h-4.9c-.5,0-.7-.2-.7-.7V12.7c0-5.5,3.2-8.3,8-8.3s2,0,2.7.2c.4,0,.6.4.6.9v3.9c0,.5-.2.7-.5.7-.5,0-1.1,0-1.7,0Z"/>
            <path class="cls-1" d="M59.2,29.8c.4,0,.9,0,1.3,0,.5,0,.8.1.8.6v4.1c0,.4-.2.7-.6.9-.7.1-1.6.2-2.6.2-4.8,0-8-2.7-8-8V8.5c0-.5.2-.7.7-.7h4.3c.5,0,.7.2.7.7l.5,5h3.7c.5,0,.7.2.7.7v4c0,.5-.3.7-.7.7h-3.7v7.6c0,2.1.9,3.1,2.7,3.1h0Z"/>
          </g>
          <g>
            <path class="cls-1" d="M73,35.5c-4.9,0-7.6-3-7.6-8.2V5.7c0-.5.2-.7.7-.7h4.9c.5,0,.7.2.7.7v20.9c0,2.1.8,3.1,2.4,3.1s.9,0,1.3,0c.5,0,.8.2.8.7v4.2c0,.4-.2.7-.5.7-.7.1-1.6.2-2.7.2h0Z"/>
            <path class="cls-1" d="M97,25.5c0,.5-.2.7-.7.7h-11.7v.7c0,2.1,1.4,3.2,3.5,3.2s3.7-.6,5.3-1.5c.4-.3.7-.2.9.2l2.1,2.9c.2.4.2.7-.1,1.1-2.1,1.6-4.8,2.8-8.4,2.8-5.4,0-9.7-2.9-9.7-8.7v-5.3c0-6.3,4.3-8.9,9.6-8.9s9.2,2.6,9.2,8.9c0,0,0,4,0,4ZM87.7,17.9c-1.9,0-3.2,1-3.2,3.3v.9h6.4v-.9c0-2.3-1.3-3.3-3.2-3.3h0Z"/>
            <path class="cls-1" d="M109.5,29.8c.4,0,.9,0,1.3,0,.5,0,.8.1.8.6v4.1c0,.4-.2.7-.6.8-.7.1-1.6.2-2.6.2-4.8,0-8-2.7-8-8V8.5c0-.5.2-.7.7-.7h4.3c.5,0,.7.2.7.7l.5,5h3.7c.5,0,.7.2.7.7v4c0,.5-.3.7-.7.7h-3.7v7.6c0,2.1.9,3.1,2.7,3.1h0Z"/>
            <path class="cls-1" d="M123.4,29.8c.4,0,.9,0,1.3,0,.5,0,.8.1.8.6v4.1c0,.4-.2.7-.6.8-.7.1-1.6.2-2.6.2-4.8,0-8-2.7-8-8V8.5c0-.5.2-.7.7-.7h4.3c.5,0,.7.2.7.7l.5,5h3.7c.5,0,.7.2.7.7v4c0,.5-.3.7-.7.7h-3.7v7.6c0,2.1.9,3.1,2.7,3.1h0Z"/>
            <path class="cls-1" d="M146.5,25.5c0,.5-.2.7-.7.7h-11.7v.7c0,2.1,1.4,3.2,3.5,3.2s3.8-.6,5.3-1.5c.4-.3.7-.2.9.2l2.1,2.9c.2.4.2.7-.1,1.1-2.1,1.6-4.8,2.8-8.4,2.8-5.4,0-9.7-2.9-9.7-8.7v-5.3c0-6.3,4.3-8.9,9.6-8.9s9.2,2.6,9.2,8.9c0,0,0,4,0,4ZM137.3,17.9c-1.9,0-3.2,1-3.2,3.3v.9h6.4v-.9c0-2.3-1.3-3.3-3.2-3.3h0Z"/>
            <path class="cls-1" d="M150.7,35c-.5,0-.7-.2-.7-.7V15.1c0-.4.2-.7.5-.9,2.3-1.1,4.9-1.7,7.6-1.7s2.5.2,4,.4c.5,0,.7.3.7.8v3.9c0,.5-.3.7-.8.7-.8-.1-1.7-.2-2.5-.2-1.2,0-2.3.2-3.1.5v15.6c0,.5-.2.7-.7.7h-4.9Z"/>
            <path class="cls-1" d="M171,27.4h-6.2c-.5,0-.7.2-.7.7v6.1c0,.5.2.7.7.7h6.2c.5,0,.7-.2.7-.7v-6.1c0-.5-.2-.7-.7-.7Z"/>
          </g>
        </g>
      </g>
    </g>
  </g>
</svg>